<svg width="94" height="40" viewBox="0 0 94 40" fill="none" xmlns="http://www.w3.org/2000/svg">
<path fill-rule="evenodd" clip-rule="evenodd" d="M88.5849 39.1132V21.086H93.8095V40H86.1773L73.553 21.9712V40H65.9207L52.7848 21.2395H55.8126L68.3284 39.1132V21.0845H75.9606L88.5849 39.1132ZM67.2338 18.6039L54.8281 0.885237H54.8266V18.759H52.284V0H59.9984L72.4057 17.7187V0H80.1201L93.146 18.6039H87.354L74.9483 0.885237V18.6039H67.2338ZM11.0308 3.93684C11.0308 1.76793 12.7129 0.197449 15.2042 0.197449C17.6956 0.197449 19.3777 1.76793 19.3777 3.93684C19.3777 6.10575 17.6956 7.67623 15.2042 7.67623C12.7129 7.67623 11.0308 6.10575 11.0308 3.93684ZM15.2042 6.21892C16.6771 6.21892 17.7049 5.25927 17.7049 3.93839C17.7049 2.61751 16.6771 1.65786 15.2042 1.65786C13.7314 1.65786 12.7036 2.61751 12.7036 3.93839C12.7036 5.25927 13.7314 6.21892 15.2042 6.21892ZM20.1866 11.2995C18.7479 11.2995 17.7728 11.5491 17.179 12.1693C16.8488 12.5165 16.672 12.9801 16.6813 13.4359C16.7015 14.411 17.303 14.9614 18.6379 15.3211L20.4099 15.7304C21.4005 15.9676 22.1137 16.1738 22.0594 16.6885C22.016 17.1009 21.3044 17.2838 20.3153 17.2838C19.4223 17.2838 18.2782 17.1179 16.7449 16.6451V18.138C18.1557 18.5504 19.2998 18.7427 20.3262 18.7427C21.5928 18.7427 22.5276 18.5551 23.1571 17.9427C23.5291 17.5799 23.7152 17.0978 23.7152 16.6528C23.7152 15.2141 22.4144 14.6932 21.185 14.4266L19.6657 14.0622L19.5794 14.0408C18.9224 13.8784 18.3572 13.7387 18.3572 13.3584C18.3572 12.9351 18.9805 12.7289 20.3107 12.7398C21.1416 12.7475 22.2005 12.8886 23.1276 13.1072V11.6933C22.1943 11.4592 21.1618 11.2995 20.1882 11.2995H20.1866ZM4.47662 11.4545H0.766683V18.586H4.47662C6.82381 18.586 8.28267 17.0527 8.28267 15.0202C8.28267 12.9877 6.82381 11.4545 4.47662 11.4545ZM4.23011 17.1132H2.37902V12.9273H4.23011C5.76649 12.9273 6.60832 13.8079 6.60832 15.0202C6.60832 16.2326 5.76494 17.1132 4.23011 17.1132ZM24.6963 11.4545H26.3087V18.586H24.6963V11.4545ZM7.00747 22.5388H0.496094V24.0116H2.97662V29.6703H4.52694V24.0116H7.00747V22.5388ZM42.3355 17.7752V11.4545H43.9478V18.586H41.089L38.1186 12.2653V18.586H36.5062V11.4545H39.365L42.3355 17.7752ZM15.5971 12.9118V11.4545H9.39583V18.586H15.5971V17.1287H11.0082V15.7411H15.4421V14.2993H11.0082V12.9118H15.5971ZM14.018 22.5388V23.9961H9.36698V25.3836H13.8629V26.8254H9.36698V28.213H14.018V29.6703H7.81665V22.5388H14.018ZM20.9474 29.6703H22.6403L19.8761 22.5388H17.194L14.4298 29.6703H16.1228L16.5584 28.523H20.5102L20.9458 29.6703H20.9474ZM17.1072 27.0812L18.5366 23.3139L19.966 27.0812H17.1072ZM34.9296 0.197449C32.4382 0.197449 30.7561 1.76793 30.7561 3.93684C30.7561 6.10575 32.4382 7.67623 34.9296 7.67623C37.421 7.67623 39.1031 6.10575 39.1031 3.93684C39.1031 1.76793 37.4194 0.197449 34.9296 0.197449ZM37.4303 3.93839C37.4303 5.25927 36.4024 6.21892 34.9296 6.21892C33.4568 6.21892 32.4289 5.25927 32.4289 3.93839C32.4289 2.61751 33.4568 1.65786 34.9296 1.65786C36.4024 1.65786 37.4303 2.61751 37.4303 3.93839ZM25.0657 4.98416L26.7276 0.370382H29.6392V7.50189H28.0268V1.144L25.8626 7.1019L25.8564 7.11896H24.2766L24.2704 7.1019L22.1046 1.144V7.50189H20.4922V0.370382H23.4053L25.0657 4.98416ZM7.0021 0.370382L5.34015 4.98416L3.6782 0.370382H0.766683V7.50189H2.37902V1.144L4.54328 7.1019L4.54948 7.11896H6.13082L6.13702 7.1019L8.30127 1.144V7.50189H9.91362V0.370382H7.0021ZM27.6664 27.106L29.3113 22.5388H32.2399V29.6703H30.6275V23.2659L28.4462 29.2718L28.44 29.2873H26.8928L26.8866 29.2718L24.7053 23.2659V29.6703H23.0929V22.5388H26.0215L27.6664 27.106ZM35.2653 14.7293H30.9926V16.1541H34.8638C34.0871 16.8098 33.0282 17.3044 31.6965 17.3044C30.5089 17.3044 28.9911 16.6254 29.0392 14.8859C29.0764 13.5666 30.1973 12.7356 31.9817 12.7356C32.9569 12.7356 33.9429 12.8612 34.9971 13.1604V11.7542C33.9165 11.4271 32.8809 11.2783 31.8872 11.2783C29.3229 11.2783 27.4703 12.5914 27.3881 14.8673C27.3525 15.8812 27.6362 16.7788 28.2842 17.4672C29.0702 18.3028 30.281 18.7633 31.6949 18.7633C33.1088 18.7633 34.2762 18.3307 35.2638 17.5494V16.1572V14.7324L35.2653 14.7293Z" fill="#1A1A1A" style="fill:#1A1A1A;fill:color(display-p3 0.1020 0.1020 0.1020);fill-opacity:1;"/>
</svg>
