<svg width="21" height="20" viewBox="0 0 21 20" fill="none" xmlns="http://www.w3.org/2000/svg">
<path d="M10.2666 5.7544H2.74194C1.96553 5.7544 1.33984 6.39074 1.35293 7.16703V7.16703C1.36491 7.87711 1.91052 8.46382 2.61786 8.52725L6.38042 8.86465C6.46099 8.87188 6.52398 8.93726 6.52819 9.01805L6.75338 13.3404C6.82721 14.7575 8.09121 15.8123 9.49864 15.6312L16.4235 14.7401M7.68466 5.7544V5.7544C7.26923 4.36101 8.21717 2.88858 9.66693 2.99949C13.7474 3.31165 14.4258 5.7544 16.4235 5.7544M16.4235 5.7544L18.3916 5.7544C18.8403 5.7544 19.2041 6.11817 19.2041 6.5669V13.9276C19.2041 14.3764 18.8403 14.7401 18.3916 14.7401H16.4235M16.4235 5.7544V14.7401" stroke="#2A2D2A" style="stroke:#2A2D2A;stroke:color(display-p3 0.1647 0.1765 0.1647);stroke-opacity:1;" stroke-width="1.5" stroke-linejoin="round"/>
</svg>
