<svg width="21" height="20" viewBox="0 0 21 20" fill="none" xmlns="http://www.w3.org/2000/svg">
<path d="M10.7334 5.7544H18.2581C19.0345 5.7544 19.6602 6.39074 19.6471 7.16703V7.16703C19.6351 7.87711 19.0895 8.46382 18.3821 8.52725L14.6196 8.86465C14.539 8.87188 14.476 8.93726 14.4718 9.01805L14.2466 13.3404C14.1728 14.7575 12.9088 15.8123 11.5014 15.6312L4.57645 14.7401M13.3153 5.7544V5.7544C13.7308 4.36101 12.7828 2.88858 11.3331 2.99949C7.25262 3.31165 6.57422 5.7544 4.57645 5.7544M4.57645 5.7544L2.6084 5.7544C2.15967 5.7544 1.7959 6.11817 1.7959 6.5669V13.9276C1.7959 14.3764 2.15967 14.7401 2.6084 14.7401H4.57645M4.57645 5.7544V14.7401" stroke="#2A2D2A" style="stroke:#2A2D2A;stroke:color(display-p3 0.1647 0.1765 0.1647);stroke-opacity:1;" stroke-width="1.5" stroke-linejoin="round"/>
</svg>
