<svg width="18" height="25" viewBox="0 0 18 25" fill="none" xmlns="http://www.w3.org/2000/svg">
<path fill-rule="evenodd" clip-rule="evenodd" d="M0.420898 8.99985C0.420898 4.26182 4.26182 0.420898 8.99985 0.420898C13.7379 0.420898 17.5788 4.26182 17.5788 8.99985V15.9998C17.5788 20.7379 13.7379 24.5788 8.99985 24.5788C4.26182 24.5788 0.420898 20.7379 0.420898 15.9998V8.99985ZM8.99985 1.57879C4.90131 1.57879 1.57879 4.90131 1.57879 8.99985V15.9998C1.57879 20.0984 4.90131 23.4209 8.99985 23.4209C13.0984 23.4209 16.4209 20.0984 16.4209 15.9998V8.99985C16.4209 4.90131 13.0984 1.57879 8.99985 1.57879Z" fill="black" style="fill:black;fill-opacity:1;"/>
<rect x="7" y="4" width="4" height="7" rx="2" fill="#0E0E0E" style="fill:#0E0E0E;fill:color(display-p3 0.0565 0.0565 0.0565);fill-opacity:1;"/>
</svg>
