<svg width="566" height="221" viewBox="0 0 566 221" fill="none" xmlns="http://www.w3.org/2000/svg">
<path d="M520.66 137.291V146.704C523.874 140.965 530.647 136.832 539.199 136.832C550.564 136.832 558.428 142.801 558.428 154.51V185.735C558.428 189.523 559.289 190.441 565.832 191.302V194H540.175V191.302C546.317 190.556 547.12 189.638 547.12 186.022V157.093C547.12 147.508 542.184 142.687 533.976 142.687C527.72 142.687 523.186 145.442 520.832 149.402V186.022C520.832 189.638 521.578 190.499 527.777 191.302V194H502.121V191.302C508.549 190.441 509.525 189.523 509.525 185.735V147.508C509.525 144.466 509.066 143.777 505.851 142.859L502.121 141.768V139.415L520.66 137.291Z" fill="black" style="fill:black;fill-opacity:1;"/>
<path d="M464.812 195.091C448.913 195.091 436.458 183.496 436.458 166.105C436.458 148.828 449.085 136.832 465.386 136.832C481.342 136.832 493.798 148.426 493.798 165.76C493.798 183.037 481.055 195.091 464.812 195.091ZM465.386 191.36C475.431 191.36 481.4 181.66 481.4 166.564C481.4 150.894 474.57 140.505 464.812 140.505C454.767 140.505 448.798 150.206 448.798 165.301C448.798 180.971 455.571 191.36 465.386 191.36Z" fill="black" style="fill:black;fill-opacity:1;"/>
<path d="M414.417 126.558C410.572 126.558 407.472 123.573 407.472 119.842C407.472 116.054 410.572 113.126 414.417 113.126C418.263 113.126 421.362 116.054 421.362 119.842C421.362 123.573 418.263 126.558 414.417 126.558ZM421.19 137.291V185.734C421.19 189.523 422.166 190.441 428.594 191.302V194H402.479V191.302C408.907 190.441 409.883 189.523 409.883 185.734V147.508C409.883 144.466 409.424 143.777 406.209 142.858L402.479 141.768V139.415L421.19 137.291Z" fill="black" style="fill:black;fill-opacity:1;"/>
<path d="M370.221 178.56V142.342H362.874V140.505L380.266 126.845H381.528V138.439L397.6 137.865V142.342L381.528 141.883V177.756C381.528 186.538 385.603 189.408 391.056 189.408C393.926 189.408 396.681 188.49 398.461 186.94V189.638C396.337 192.508 391.286 195.09 385.144 195.09C376.822 195.09 370.221 190.441 370.221 178.56Z" fill="black" style="fill:black;fill-opacity:1;"/>
<path d="M321.892 195.091C312.536 195.091 305.477 189.408 305.477 181.086C305.477 172.304 311.848 167.081 327.402 163.694L339.628 160.996V155.429C339.628 144.695 334.003 140.907 325.508 140.907C321.318 140.907 317.473 141.883 314.718 143.777C317.415 144.179 319.596 146.647 319.596 149.689C319.596 153.018 316.899 155.601 313.455 155.601C310.068 155.601 307.256 153.018 307.256 149.517C307.256 142.17 317.071 136.832 329.584 136.832C342.326 136.832 350.706 142.17 350.706 154.166V183.209C350.706 188.318 353.404 190.327 356.847 190.327C357.938 190.327 358.914 190.154 359.603 189.867V192.335C357.823 193.598 354.609 194.804 350.706 194.804C345.081 194.804 341.006 191.934 339.915 186.653C337.045 191.36 330.215 195.091 321.892 195.091ZM316.956 179.077C316.956 185.792 321.663 189.695 327.862 189.695C333.027 189.695 337.16 187.629 339.628 183.898V164.268L332.74 165.818C320.859 168.401 316.956 172.419 316.956 179.077Z" fill="black" style="fill:black;fill-opacity:1;"/>
<path d="M276.491 137.291V149.345C283.264 141.137 288.085 137.062 292.964 137.062C297.211 137.062 298.876 139.759 298.876 142.859C298.876 144.466 298.359 146.073 297.785 146.877C296.637 146.532 294.399 146.303 292.103 146.303C286.133 146.303 279.59 148.369 276.663 151.583V185.218C276.663 189.58 277.524 190.441 284.756 191.302V194H257.951V191.302C264.494 190.499 265.355 189.58 265.355 185.907V147.508C265.355 144.466 264.896 143.777 261.682 142.859L257.951 141.768V139.415L276.491 137.291Z" fill="black" style="fill:black;fill-opacity:1;"/>
<path d="M238.092 126.558C234.246 126.558 231.146 123.573 231.146 119.842C231.146 116.054 234.246 113.126 238.092 113.126C241.937 113.126 245.037 116.054 245.037 119.842C245.037 123.573 241.937 126.558 238.092 126.558ZM244.864 137.291V185.734C244.864 189.523 245.84 190.441 252.269 191.302V194H226.153V191.302C232.581 190.441 233.557 189.523 233.557 185.734V147.508C233.557 144.466 233.098 143.777 229.884 142.858L226.153 141.768V139.415L244.864 137.291Z" fill="black" style="fill:black;fill-opacity:1;"/>
<path d="M217.83 165.416C217.83 183.152 205.834 195.091 190.853 195.091C184.138 195.091 178.8 192.335 175.987 188.375V211.621C175.987 215.983 176.791 216.844 184.081 217.705V220.403H157.276V217.705C163.819 216.902 164.68 215.983 164.68 212.31V147.508C164.68 144.466 164.221 143.777 161.007 142.859L157.276 141.768V139.415L175.815 137.291V147.221C178.915 140.965 186.262 136.832 194.527 136.832C206.867 136.832 217.83 147.278 217.83 165.416ZM206.006 166.679C206.006 151.985 199.061 142.687 189.017 142.687C182.99 142.687 178.513 145.155 175.987 149.632V184.529C177.824 188.145 182.646 190.958 188.328 190.958C198.832 190.958 206.006 181.373 206.006 166.679Z" fill="black" style="fill:black;fill-opacity:1;"/>
<path d="M108.315 152.846C108.315 142.629 117.327 136.832 129.61 136.832C137.875 136.832 144.017 138.611 146.887 140.563L147.231 154.74H144.705C143.041 145.442 137.129 140.505 129.667 140.505C122.435 140.505 117.958 144.122 117.958 149.517C117.958 154.912 122.091 157.438 129.266 159.676L133.685 160.996C143.787 164.038 149.699 169.319 149.699 178.445C149.699 188.777 139.31 194.976 128.06 194.976C119.565 194.976 112.218 192.909 108.373 190.212L107.799 175.174H110.267C112.448 185.792 120.082 191.245 128.003 191.245C135.35 191.245 140.056 187.17 140.056 181.602C140.056 176.207 136.785 173.222 129.036 170.869L124.616 169.491C114.457 166.334 108.315 161.456 108.315 152.846Z" fill="black" style="fill:black;fill-opacity:1;"/>
<path d="M54.9359 137.291V146.704C58.1502 140.965 64.9231 136.832 73.4753 136.832C84.84 136.832 92.7035 142.801 92.7035 154.51V185.735C92.7035 189.523 93.5645 190.441 100.108 191.302V194H74.4511V191.302C80.5926 190.556 81.3962 189.638 81.3962 186.022V157.093C81.3962 147.508 76.46 142.687 68.2522 142.687C61.9958 142.687 57.4614 145.442 55.1081 149.402V186.022C55.1081 189.638 55.8543 190.499 62.0532 191.302V194H36.3965V191.302C42.825 190.441 43.8008 189.523 43.8008 185.735V147.508C43.8008 144.466 43.3416 143.777 40.1273 142.859L36.3965 141.768V139.415L54.9359 137.291Z" fill="black" style="fill:black;fill-opacity:1;"/>
<path d="M21.1286 184.127C21.1286 189.178 22.2192 190.384 29.8531 191.302V194H0.00634766V191.302C7.69763 190.384 8.73077 189.178 8.73077 184.127V120.99C8.73077 115.882 7.69763 114.734 0.00634766 113.815V111.118H29.8531V113.815C22.2192 114.734 21.1286 115.882 21.1286 120.99V184.127Z" fill="black" style="fill:black;fill-opacity:1;"/>
<path d="M415.737 26.2912V35.7044C418.951 29.9647 425.724 25.832 434.277 25.832C445.641 25.832 453.505 31.8014 453.505 43.5105V74.7348C453.505 78.523 454.366 79.4414 460.909 80.3023V83H435.252V80.3023C441.394 79.5562 442.197 78.6378 442.197 75.0218V46.0934C442.197 36.508 437.261 31.6866 429.053 31.6866C422.797 31.6866 418.263 34.4417 415.909 38.4021V75.0218C415.909 78.6378 416.655 79.4988 422.854 80.3023V83H397.198V80.3023C403.626 79.4414 404.602 78.523 404.602 74.7348V36.508C404.602 33.4659 404.143 32.7771 400.929 31.8588L397.198 30.7682V28.4149L415.737 26.2912Z" fill="black" style="fill:black;fill-opacity:1;"/>
<path d="M338.423 45.0602C338.423 33.4085 349.213 25.832 362.243 25.832C366.605 25.832 370.508 26.6356 373.55 27.8983L392.95 26.8078V31.2848L377.453 30.5386C382.619 33.0641 385.776 38.2873 385.776 44.601C385.776 56.4249 374.64 63.7144 362.415 63.7144C360.406 63.7144 358.397 63.4848 355.757 63.0257C350.82 64.231 348.352 66.5843 348.352 69.7986C348.352 73.5868 351.739 75.5383 358.11 75.5383H369.302C382.848 75.5383 390.425 80.9337 390.425 90.9209C390.425 103.032 377.797 111.125 362.53 111.125C346.458 111.125 336.069 105.385 336.069 96.6607C336.069 90.4617 341.809 85.7551 353.059 84.2054C345.196 84.0906 339.398 80.3023 339.398 74.2182C339.398 68.2489 344.622 64.1162 353.002 62.2221C344.564 60.1558 338.423 54.1864 338.423 45.0602ZM349.787 44.5436C349.787 54.1864 354.896 60.328 362.415 60.328C369.647 60.328 374.526 54.3012 374.526 45.0602C374.526 35.647 369.877 29.1611 361.898 29.1611C354.379 29.1611 349.787 35.3026 349.787 44.5436ZM345.884 95.4553C345.884 102.343 352.026 107.394 362.759 107.394C373.722 107.394 381.184 102.4 381.184 94.7091C381.184 88.625 377.166 85.009 367.695 85.009H355.814C349.156 86.0421 345.884 90.0025 345.884 95.4553Z" fill="black" style="fill:black;fill-opacity:1;"/>
<path d="M315.808 15.5575C311.962 15.5575 308.863 12.5728 308.863 8.84198C308.863 5.05374 311.962 2.12646 315.808 2.12646C319.654 2.12646 322.753 5.05374 322.753 8.84198C322.753 12.5728 319.654 15.5575 315.808 15.5575ZM322.581 26.2909V74.7344C322.581 78.5227 323.557 79.441 329.985 80.302V82.9997H303.869V80.302C310.298 79.441 311.273 78.5227 311.273 74.7344V36.5076C311.273 33.4655 310.814 32.7768 307.6 31.8584L303.869 30.7679V28.4146L322.581 26.2909Z" fill="black" style="fill:black;fill-opacity:1;"/>
<path d="M254.22 41.846C254.22 31.6292 263.232 25.832 275.515 25.832C283.78 25.832 289.922 27.6114 292.791 29.5629L293.136 43.7401H290.61C288.946 34.4417 283.034 29.5055 275.572 29.5055C268.34 29.5055 263.863 33.1215 263.863 38.5169C263.863 43.9123 267.996 46.4378 275.17 48.6763L279.59 49.9964C289.692 53.0385 295.604 58.3191 295.604 67.4453C295.604 77.7769 285.215 83.9758 273.965 83.9758C265.47 83.9758 258.123 81.9095 254.278 79.2118L253.704 64.1736H256.172C258.353 74.7922 265.987 80.245 273.908 80.245C281.254 80.245 285.961 76.1697 285.961 70.6022C285.961 65.2068 282.689 62.2221 274.941 59.8688L270.521 58.4913C260.362 55.3344 254.22 50.4556 254.22 41.846Z" fill="black" style="fill:black;fill-opacity:1;"/>
<path d="M193.896 55.0474C193.896 38.0577 204.342 25.832 220.298 25.832C235.05 25.832 243.487 35.2452 243.487 49.2502C243.487 50.4556 243.372 51.7183 243.257 52.5793H205.375C205.834 67.8471 214.501 78.236 227.53 78.236C233.844 78.236 239.01 75.9401 242.339 72.5537V75.2514C238.608 80.4171 231.089 84.0906 221.561 84.0906C205.662 84.0906 193.896 72.7259 193.896 55.0474ZM220.241 29.5055C211.574 29.5055 205.892 36.3932 205.375 49.4224L232.524 49.3076C232.581 48.7337 232.581 48.1597 232.581 47.4709C232.581 36.795 228.391 29.5055 220.241 29.5055Z" fill="black" style="fill:black;fill-opacity:1;"/>
<path d="M183.564 40.1812C183.564 67.6746 161.007 82.9998 135.006 82.9998H104.929V80.3021C112.62 79.3838 113.654 78.1784 113.654 73.1274V9.99006C113.654 4.88168 112.62 3.73372 104.929 2.81536V0.117676H134.948C163.245 0.117676 183.564 14.5245 183.564 40.1812ZM169.846 41.2718C169.846 18.7145 156.128 4.1929 132.824 3.44674L126.052 3.21715V79.9003L132.824 79.6707C155.956 78.9246 169.846 64.69 169.846 41.2718Z" fill="black" style="fill:black;fill-opacity:1;"/>
<path d="M491.906 49.7188C484.125 49.7188 478.531 44.6562 478.531 37.5312C478.531 31.9375 482.281 27.5312 489.75 24.8438C485.812 20.5 484.188 17.4062 484.188 13.625C484.188 7.75 489.281 3.09375 496.906 3.09375C504.562 3.09375 509.031 7.09375 509.031 12.3125C509.031 16.9375 505.281 20.3438 498.656 23C499.062 23.375 499.469 23.7812 499.875 24.1875L510.219 34.3125L513.469 29.3438C516.562 24.6562 515.75 23.1875 511.406 22.5938V20.9062L524.75 20.875V22.5625C521.469 22.9688 519.906 24.125 515.844 29.625L511.469 35.5625L516.25 40.2188C521.281 45.0938 523.469 46.6875 525.812 47.4062V49H514.25L506.75 41.6875C502.25 46.9062 497.844 49.7188 491.906 49.7188ZM491.062 11.1562C491.062 14.4375 492.812 17.0938 497.469 21.7812C501.062 19.5312 502.781 16.4688 502.781 12.625C502.812 8.5625 500.625 5.4375 496.906 5.4375C493.469 5.4375 491.062 7.5625 491.062 11.1562ZM485.594 34.2188C485.594 40.8438 490.594 45.3438 496.469 45.3438C499.688 45.3438 502.688 43.9062 505.656 40.625L494.094 29.3125C492.906 28.1562 491.875 27.0938 490.906 26.125C487.281 28.0938 485.594 30.8125 485.594 34.2188Z" fill="#CDCDCD" style="fill:#CDCDCD;fill:color(display-p3 0.8057 0.8057 0.8057);fill-opacity:1;"/>
</svg>
